<svg xmlns="http://www.w3.org/2000/svg" width="1000.001" height="271.89" viewBox="0 0 651 177">
  <defs>
    <style>
      .cls-1 {
        fill: #393939;
      }

      .cls-1, .cls-2 {
        fill-rule: evenodd;
      }

      .cls-2 {
        fill: #01bfd9;
      }
    </style>
  </defs>
  <path id="Job_Match" data-name="Job Match" class="cls-1" d="M628.879,170.161V140.786q0-6.1-2.475-8.9a8.491,8.491,0,0,0-6.686-2.79,12.2,12.2,0,0,0-5.9,1.421,9.747,9.747,0,0,0-4.106,4.369,17.5,17.5,0,0,0-1.474,7.792v27.48h-20V92.037h20v24.937c0,2.758-.976,1.27,4.317-1.721a25.664,25.664,0,0,1,12.845-3.211,26.056,26.056,0,0,1,12,2.737,19.964,19.964,0,0,1,8.476,8.318q3.1,5.581,3.106,14.425v32.639h-20.11Zm-81.126-16.53a12.491,12.491,0,0,0,6.265,1.579,11.886,11.886,0,0,0,6.423-1.842,14.046,14.046,0,0,0,4.948-5.844l15.478,7.9a23.027,23.027,0,0,1-10,11.529,32.36,32.36,0,0,1-16.741,4.159,36.553,36.553,0,0,1-16.951-3.79,29.094,29.094,0,0,1-11.582-10.477,29.679,29.679,0,0,1,0-30.481,29.634,29.634,0,0,1,11.582-10.476,36.128,36.128,0,0,1,16.951-3.843,32.38,32.38,0,0,1,16.741,4.159,23.035,23.035,0,0,1,10,11.529l-15.478,8a14.065,14.065,0,0,0-4.948-5.844,11.9,11.9,0,0,0-6.423-1.842,12.491,12.491,0,0,0-6.265,1.579,11.8,11.8,0,0,0-4.474,4.527,17.192,17.192,0,0,0,0,14.846A11.608,11.608,0,0,0,547.753,153.631Zm-44.221.316a5.8,5.8,0,0,0,4.369,1.684,10.592,10.592,0,0,0,6.107-1.789l5.054,13.9a18.816,18.816,0,0,1-6.37,2.579,35.824,35.824,0,0,1-7.633.79q-10.953,0-17.057-5.422T481.9,149.314V130.562l-7.986-.135V115.5l7.986-.065V100.249h20v15.078l13.359,0.168v14.932l-13.359-.071V149A6.834,6.834,0,0,0,503.532,153.947ZM491.844,81.331a28.087,28.087,0,0,1-14.162,3.633q-7.686,0-12.792-3.159a16.872,16.872,0,0,1-3.3-2.666,6.75,6.75,0,0,1-.649-0.784v5.661H441.779V5.891h20V32.407a10.61,10.61,0,0,1,3.474-3.3A23.051,23.051,0,0,1,477.682,25.9a28.087,28.087,0,0,1,14.162,3.632,26.683,26.683,0,0,1,10.108,10.213,31.392,31.392,0,0,1,3.737,15.741,31.161,31.161,0,0,1-3.737,15.635A26.672,26.672,0,0,1,491.844,81.331Zm-8-33.324a11.771,11.771,0,0,0-20.742,0,15.3,15.3,0,0,0-1.632,7.476A15.507,15.507,0,0,0,463.1,62.8a11.424,11.424,0,0,0,4.317,4.685,12.392,12.392,0,0,0,12.108,0,11.438,11.438,0,0,0,4.317-4.685,15.531,15.531,0,0,0,1.632-7.318A15.325,15.325,0,0,0,483.842,48.007Zm-24.531,70.457q7.633,6.424,7.634,20v31.692H448.309v-9.827c-0.957,3.354-2.055,5.982-4.791,7.774q-4.579,3-12.056,3a26.294,26.294,0,0,1-11.529-2.316,16.914,16.914,0,0,1-7.265-6.318,16.478,16.478,0,0,1-2.474-8.844,15.741,15.741,0,0,1,2.685-9.16,16.613,16.613,0,0,1,8.318-5.949,42.539,42.539,0,0,1,14.372-2.053l11.194-1.36a8.534,8.534,0,0,0-2.719-5.116q-2.9-2.578-9.212-2.579a27.31,27.31,0,0,0-8.371,1.369,26.036,26.036,0,0,0-7.212,3.474l-6.633-13.477a39.678,39.678,0,0,1,11.634-4.948,52.911,52.911,0,0,1,13.53-1.79Q451.678,112.042,459.311,118.464Zm-12.08,29.173L438.306,147q-4.844,0-6.791,1.474a4.965,4.965,0,0,0-1.948,4.211,5.13,5.13,0,0,0,2,4.159,8.406,8.406,0,0,0,5.475,1.632,11.417,11.417,0,0,0,6.054-1.632,9.036,9.036,0,0,0,3.843-5l0.466,2ZM416.985,81.173a38.516,38.516,0,0,1-33.324,0A28.887,28.887,0,0,1,372.237,70.7a28.193,28.193,0,0,1-4.159-15.214,28.392,28.392,0,0,1,4.159-15.32,28.9,28.9,0,0,1,11.424-10.476,38.517,38.517,0,0,1,33.324,0,28.824,28.824,0,0,1,11.476,10.476,28.409,28.409,0,0,1,4.159,15.32A28.21,28.21,0,0,1,428.461,70.7,28.813,28.813,0,0,1,416.985,81.173Zm-6.318-33.166a11.771,11.771,0,0,0-20.742,0,15.056,15.056,0,0,0-1.632,7.37,15.747,15.747,0,0,0,1.632,7.423,11.431,11.431,0,0,0,4.317,4.685,12.392,12.392,0,0,0,12.108,0,11.438,11.438,0,0,0,4.317-4.685,15.759,15.759,0,0,0,1.632-7.423A15.067,15.067,0,0,0,410.667,48.007Zm-80.6,37.483a37,37,0,0,1-14.582-2.79,28.793,28.793,0,0,1-11-8.055l11.371-13.582a23.664,23.664,0,0,0,6.107,5.738,12.438,12.438,0,0,0,6.633,1.948q9.16,0,9.16-10.634V26.528H312.381V10.313H358.5V56.956q0,14.32-7.265,21.426T330.069,85.49Zm26.681,52.977L382.4,96.459H399.56l0.105,73.7H380.5l-0.181-38.244L361.34,162.9h-9.265l-18.847-30.491v37.756H314.065v-73.7h17.162Z"/>
  <path id="Rounded_Rectangle_2" data-name="Rounded Rectangle 2" class="cls-2" d="M78.9,138.156l18.3-23.344a7.093,7.093,0,0,1,11.165,8.75l-18.3,23.344A7.092,7.092,0,1,1,78.9,138.156Z"/>
  <path id="Rounded_Rectangle_3" data-name="Rounded Rectangle 3" class="cls-2" d="M68.848,119.627L76.8,109.478a6.447,6.447,0,1,1,10.15,7.954L79,127.582A6.448,6.448,0,0,1,68.848,119.627Z"/>
  <path id="Rounded_Rectangle_4" data-name="Rounded Rectangle 4" class="cls-2" d="M95.717,148.058l14.318-18.269a7.093,7.093,0,1,1,11.165,8.75l-14.318,18.269A7.093,7.093,0,0,1,95.717,148.058Z"/>
  <path id="Rounded_Rectangle_5" data-name="Rounded Rectangle 5" class="cls-2" d="M115.714,153.9l4.773-6.09a7.092,7.092,0,1,1,11.164,8.75l-4.772,6.09A7.093,7.093,0,0,1,115.714,153.9Z"/>
  <path class="cls-2" d="M131.774,160.825l9.956,9.957s6.219,1.249,8.713-1.244,1.244-8.713,1.244-8.713-13.47-15.958-17.424-19.913c-0.67-.67-2.489,0-2.489,0s5.307,7.508,4.978,12.446C136.461,157.718,131.774,160.825,131.774,160.825Z"/>
  <path class="cls-2" d="M81.99,32.633s7.326,6.815,16.18,9.957c10.324,3.663,22.4,3.734,22.4,3.734a25.313,25.313,0,0,0-6.223,6.223,32.521,32.521,0,0,0-3.733,8.712s-3.516,15.677-4.979,27.381c-0.855,6.839-1.949,9.8-1.244,12.446s8.316,4.065,14.935,2.489c6.447-1.535,9.626-4.658,12.446-8.712S141.73,73.7,141.73,73.7l59.741,56.007s0.777,6.69-1.245,8.712c-2.314,2.314-7.467,0-7.467,0L160.4,111.042s-4.013-2.21-4.978-1.245c-0.9.9,1.244,4.979,1.244,4.979l33.6,29.87s0.311,5.29-2.489,7.467-8.712,1.245-8.712,1.245l-31.115-28.626s-3.972-1.341-4.978,0c-0.847,1.13,1.245,4.979,1.245,4.979L171.6,153.358s1.161,5.362-1.245,7.467c-2.567,2.246-8.712,1.245-8.712,1.245l-22.4-19.913s-2.386-1.582-3.734-1.245c-1.12.28-1.244,4.978-1.244,4.978s-1.229-3.9-3.734-4.978c-1.684-.722-4.978,0-4.978,0s0.022-10.5-3.734-14.935c-3-3.551-9.957-2.489-9.957-2.489s0.171-10.8-4.978-13.691c-4.8-2.7-14.935,2.49-14.935,2.49s-4.389-6.849-9.957-7.468c-5.633-.626-12.446,4.978-12.446,4.978a63.415,63.415,0,0,0-7.468-9.956A11.108,11.108,0,0,0,57.1,97.351Z"/>
  <path id="Rounded_Rectangle_1" data-name="Rounded Rectangle 1" class="cls-2" d="M38,6.04L76.955,21.158c1.5,0.583,2.113,2.613,1.367,4.536L49.053,101.112c-0.746,1.922-2.568,3.008-4.069,2.426L6.029,88.42c-1.5-.583-2.113-2.613-1.367-4.536L33.931,8.466C34.677,6.544,36.5,5.458,38,6.04Z"/>
  <path id="Rounded_Rectangle_1_copy" data-name="Rounded Rectangle 1 copy" class="cls-2" d="M206.11,21.749L245.183,6.936c1.5-.571,3.318.53,4.049,2.458L277.91,85.039c0.731,1.928.1,3.954-1.4,4.525l-39.073,14.813c-1.506.571-3.319-.529-4.05-2.458L204.707,26.274C203.976,24.346,204.6,22.32,206.11,21.749Z"/>
  <path class="cls-2" d="M227.607,97.351l-23.647-58.5a135.322,135.322,0,0,1-19.914-2.489c-11.832-2.278-16.784-3.405-33.6-2.489s-33.6,22.4-33.6,22.4l-7.468,41.071s10.773,3.433,17.424-4.978S133.559,69,138,68.726s6.995-1.127,8.712,1.245,46.05,44.805,46.05,44.805,7.176,0.831,11.2-1.245S227.607,97.351,227.607,97.351Z"/>
</svg>
